<svg xmlns="http://www.w3.org/2000/svg" width="240.499" height="72.064" viewBox="0 0 240.499 72.064"><defs><style>.a{fill:#f7f7f8;}</style></defs><g transform="translate(142.989 42.846)"><g transform="translate(-142.989 -42.846)"><g transform="translate(82.154 20.998)"><path class="a" d="M212.906,68.5c6.986,0,11.806,4.7,11.806,11.561s-4.821,11.52-11.806,11.52-11.806-4.7-11.806-11.52S205.88,68.5,212.906,68.5Zm0,18.465c4,0,6.659-2.819,6.659-6.9s-2.655-6.945-6.659-6.945-6.659,2.819-6.659,6.945S208.944,86.965,212.906,86.965Z" transform="translate(-201.1 -61.514)"/><path class="a" d="M290.07,71.9V89.218a2.451,2.451,0,0,1-2.574,2.533A2.41,2.41,0,0,1,285,89.218v-.327h-.082a8.746,8.746,0,0,1-7.149,3.1c-6.005,0-9.274-3.6-9.274-10.213V71.9a2.538,2.538,0,1,1,5.066,0v9.4c0,4,1.92,6.128,5.474,6.128s6.005-2.574,6.005-6.822V71.9a2.448,2.448,0,0,1,2.533-2.7A2.418,2.418,0,0,1,290.07,71.9Z" transform="translate(-240.965 -61.928)"/><path class="a" d="M348.892,77.627c-1.266,2.533-3.922,3.84-7.435,3.84-5.27,0-8.456-3.309-8.456-8.865V54.1a2.538,2.538,0,1,1,5.066,0v4.861h7.6a2.248,2.248,0,0,1,2.533,2.329,2.22,2.22,0,0,1-2.533,2.288h-7.639v9.192c0,2.615,1.389,4.085,3.636,4.085a3.677,3.677,0,0,0,3.268-1.8,2.247,2.247,0,0,1,1.92-1.1,2.206,2.206,0,0,1,2.329,2.329A2.982,2.982,0,0,1,348.892,77.627Z" transform="translate(-279.116 -51.4)"/><path class="a" d="M398.435,87.719a11.375,11.375,0,0,1-9.028,3.963c-7.027,0-11.806-4.7-11.806-11.52S382.38,68.6,389.406,68.6a11.686,11.686,0,0,1,8.416,3.268,2.37,2.37,0,0,1,.695,1.716,2.247,2.247,0,0,1-2.329,2.369,2.492,2.492,0,0,1-1.634-.654,7.108,7.108,0,0,0-5.107-2.084c-3.963,0-6.659,2.819-6.659,6.945s2.7,6.9,6.659,6.9a6.416,6.416,0,0,0,5.229-2.247,2.41,2.41,0,0,1,1.879-.9,2.288,2.288,0,0,1,2.451,2.369A2.37,2.37,0,0,1,398.435,87.719Z" transform="translate(-305.495 -61.573)"/><path class="a" d="M448.806,68.5c6.986,0,11.806,4.7,11.806,11.561s-4.821,11.52-11.806,11.52S437,86.884,437,80.061,441.78,68.5,448.806,68.5Zm0,18.465c4,0,6.659-2.819,6.659-6.9s-2.655-6.945-6.659-6.945-6.659,2.819-6.659,6.945S444.885,86.965,448.806,86.965Z" transform="translate(-340.629 -61.514)"/><path class="a" d="M539.489,78.264V88.64a2.538,2.538,0,1,1-5.066,0v-9.8c0-3.718-1.552-5.679-4.494-5.679s-4.9,2.369-4.9,6.373v9.11a2.538,2.538,0,1,1-5.066,0v-9.8c0-3.718-1.552-5.679-4.494-5.679s-4.9,2.369-4.9,6.373v9.11a2.538,2.538,0,1,1-5.066,0V71.482a2.536,2.536,0,1,1,5.066-.082h.082a7.255,7.255,0,0,1,6.046-2.9,7.612,7.612,0,0,1,6.618,3.472h.082c1.552-2.247,4.085-3.472,7.476-3.472C536.67,68.5,539.489,71.85,539.489,78.264Z" transform="translate(-381.145 -61.514)"/></g><path class="a" d="M36.032,0A36.032,36.032,0,1,0,72.064,36.032,36.032,36.032,0,0,0,36.032,0Zm0,61.688A25.655,25.655,0,1,1,61.687,36.032,25.655,25.655,0,0,1,36.032,61.688Z"/><path class="a" d="M109.362,62.788c-10.254,0-18.751-6.7-18.751-18.425s8.171-18.506,18.751-18.506l2.247.123A36.236,36.236,0,0,0,100.5,14.5C86.2,17.4,75.7,28.227,75.7,44.649S86.077,71.9,100.457,74.839a36.2,36.2,0,0,0,11.48-12.092Q110.751,62.788,109.362,62.788Z" transform="translate(-44.775 -8.576)"/></g></g></svg>